<svg width="128" height="41" viewBox="0 0 128 41" fill="none" xmlns="http://www.w3.org/2000/svg">
<path fill-rule="evenodd" clip-rule="evenodd" d="M81.3815 0.209737C81.5534 0.490675 81.6036 0.939843 81.4558 1.22078C80.9621 2.17547 79.9012 1.97906 79.1862 2.48458C77.2603 3.55198 75.3606 4.87131 73.8563 6.94974C73.6088 7.28703 73.2877 7.53979 72.8937 7.59615C72.6222 7.53979 72.3506 7.39974 72.2268 7.09063C72.0302 5.18042 72.794 3.46745 73.461 1.83818C75.3111 -0.520364 78.4697 1.16443 80.7408 0.0125023C81.0116 -0.0430222 81.1835 0.0978599 81.3815 0.209737ZM34.7683 1.97989C35.163 2.26083 35.5576 2.70999 35.6566 3.21551C35.8787 4.0865 35.4841 4.7876 35.0399 5.43401C33.4111 7.11963 31.4371 8.07432 29.1916 7.70885C28.8705 7.5688 28.5254 7.39974 28.3768 7.00693C28.2785 6.5014 28.4999 6.05223 28.8705 5.884C29.2906 5.71577 29.6853 5.26577 29.9321 4.81661C29.7843 4.14286 29.1421 3.94562 28.6484 3.74922C24.5775 3.32822 20.7526 4.47932 17.2729 6.08041C13.3002 8.27073 7.89608 11.9503 7.94559 17.8765C7.69875 22.2571 11.252 25.7676 14.3859 27.425C19.7653 30.5427 27.3159 30.0653 32.7449 27.425C33.189 27.425 33.6827 27.3686 34.0278 27.7341C34.2746 28.0432 34.4967 28.4642 34.3242 28.9416C33.8305 30.0081 32.7696 30.149 31.9308 30.599C22.9734 33.7714 11.4005 33.5484 3.99769 26.7222C1.11066 24.0819 -0.468642 20.4314 0.123325 16.2472C1.30799 8.91713 8.34023 5.06937 13.7196 2.99093C19.9386 0.912497 27.3159 -0.547714 33.9295 1.53072L34.7683 1.97989ZM92.2634 7.84974C92.4854 9.11354 91.4981 9.92817 91.3248 11.0511C91.153 11.6967 90.9054 12.3712 90.9549 13.0732C91.9175 12.4268 92.6828 11.2757 93.5958 10.5456C95.9156 8.60802 98.2093 6.55775 101.047 6.02406C101.935 5.93953 102.75 6.27682 103.219 7.14698C103.638 7.96161 103.565 9.08453 103.441 10.04C102.626 13.1295 101.541 16.1063 100.776 19.224C100.825 19.6458 100.825 20.0941 101.219 20.2922C102.873 19.674 104.156 17.7646 105.391 16.3044C107.932 13.2431 109.462 8.91796 112.991 7.14864C115.706 5.35196 119.974 5.23843 122.54 7.45775C124.662 9.50801 124.588 13.3558 123.749 16.0516C122.762 20.0112 119.332 23.888 115.754 24.7018C112.769 25.3747 109.413 25.0656 107.439 22.2579C106.846 21.275 106.5 20.1521 106.278 18.9729C103.589 21.9214 100.826 24.8709 97.0501 24.9836C96.2113 24.87 95.3965 24.4491 94.9283 23.5217C93.7436 20.6568 95.1001 17.6245 95.8159 14.9279C96.0132 14.2823 96.2608 13.6641 96.2855 12.9058C95.9644 12.7375 95.5705 12.9621 95.2247 13.1022C91.3991 15.1524 88.7596 19.7858 86.5141 23.5781C85.8471 24.5328 85.0338 25.572 83.8491 25.3474C83.0839 25.1792 82.2946 24.7582 81.8992 23.8872C81.5534 23.2963 81.8009 22.4543 81.8512 21.8087C82.221 20.0949 82.8378 18.4102 83.2819 16.8091C79.5561 20.685 75.5827 23.8573 70.9679 25.3466C70.3023 25.4311 69.5371 25.4584 69.0194 24.9529C68.3779 24.3347 68.1303 23.4654 68.3044 22.5107C69.0937 19.0557 70.204 15.7698 70.9438 12.3149C70.9438 11.9503 70.5499 11.9212 70.4502 11.5848C70.3264 11.1066 70.4502 10.6301 70.7458 10.2928C72.7452 8.52349 75.0148 7.51244 77.4584 7.0351C77.8537 7.0351 78.2236 7.28786 78.445 7.70885C78.7646 9.42182 77.5814 10.6865 77.2363 12.203C76.5213 14.3652 75.8041 16.4999 75.4102 18.8311C75.4102 19.0557 75.3847 19.3648 75.6322 19.4204C77.1868 19.1958 78.3714 17.9602 79.6042 16.8091C83.1581 13.5505 85.4277 9.31077 88.7837 5.82765C90.0426 5.2376 91.1289 6.27682 91.9918 7.28869L92.2634 7.84974ZM114.94 10.321C112.373 12.203 110.819 15.3762 110.943 18.8303C111.041 19.645 111.362 20.5159 112.102 20.8524C113.928 21.246 115.36 19.7286 116.543 18.2121C117.828 16.1336 118.913 13.5223 118.098 10.882C117.482 9.5627 115.853 9.53453 114.94 10.321Z" fill="#CC2131"/>
<path fill-rule="evenodd" clip-rule="evenodd" d="M46.6375 9.30995C46.9339 9.61906 47.1559 9.92817 47.1312 10.3773C47.1559 11.332 46.4154 11.9503 46.2429 12.8204C45.225 15.5989 44.3192 18.4289 43.5284 21.3016C43.4054 21.8079 43.5284 22.3134 43.7505 22.7063C44.1946 23.5482 45.774 23.0717 45.305 24.4482C43.5037 26.0195 41.4554 26.9477 39.1859 27.1722C38.2233 27.1996 37.2614 27.2286 36.6935 26.3584C36.3971 25.8239 36.4219 25.0946 36.4219 24.4764C32.8439 26.7794 27.5875 28.6051 23.7634 25.6565C22.4805 24.4764 21.863 22.7353 22.2089 20.8541C24.1821 12.3713 32.1529 9.87182 38.8152 9.02818C41.1591 8.74724 43.701 8.63537 46.0208 9.02818L46.6375 9.30995ZM39.3584 12.5113C35.8547 12.9605 32.5723 14.1961 30.0806 17.3138C29.0933 18.6613 28.0324 20.2342 28.5996 22.0598C29.0933 22.9582 30.0806 23.0717 30.993 22.9308C35.6319 22.5098 38.3958 16.8919 39.7531 12.5677L39.3584 12.5113ZM67.6119 8.97266C67.7357 9.39365 67.5864 9.81547 67.3898 10.1246C66.6486 10.9666 65.7115 11.4166 64.7249 11.332C64.4533 11.2475 64.4031 10.8829 64.5014 10.6301C64.5014 10.4337 64.8727 10.3492 64.7249 10.1246C63.5148 9.19724 61.7876 9.45083 60.4064 9.78729C59.6171 10.0682 58.7528 10.4337 58.3087 11.332C58.2096 11.8376 58.2839 12.3431 58.5802 12.7085C59.4445 13.495 60.4806 13.8315 61.4177 14.366C63.0961 13.8886 64.947 13.4386 66.7469 13.7759C67.044 13.916 67.1423 14.3096 67.0185 14.6187C66.0574 15.377 64.773 15.237 63.7368 15.7417C64.7489 16.4999 65.7851 17.5955 65.8593 19.0276C66.1309 22.0043 64.181 24.3919 62.1328 26.0493C58.6778 28.5761 54.0884 29.1098 49.7947 28.267C48.6843 27.9869 47.4508 27.0885 47.204 25.7129C46.7846 22.9598 48.5852 20.7969 50.4609 19.393C51.7934 18.4102 53.2001 17.6519 54.6316 16.8936C53.5955 16.0226 51.5713 15.1806 52.065 13.2149C52.7807 11.1083 54.7547 10.0699 56.3587 9.22707C59.4431 8.01962 62.9723 7.03676 66.4506 7.96328C66.8714 8.1862 67.3651 8.41078 67.6119 8.97266ZM56.9026 18.2684C56.0638 18.6331 55.2738 19.1386 54.4598 19.5886C53.1768 20.4869 51.5728 21.3579 50.9065 23.0717C50.6597 23.7173 50.7092 24.643 51.2029 25.1502C52.3868 26.1048 54.1634 26.1048 55.5702 25.712C57.0504 25.0938 58.7783 24.2792 59.5181 22.5107C59.7897 21.6397 59.4933 20.6286 58.8518 19.9822C58.1856 19.4195 57.6184 18.6339 56.9026 18.2684Z" fill="#CC2131"/>
<path fill-rule="evenodd" clip-rule="evenodd" d="M127.821 28.3225C127.969 28.3515 127.919 28.5197 127.969 28.6316L122.145 33.5476C118.592 33.2932 115.038 32.8158 111.436 32.5631L100.776 31.9739C88.7094 31.412 76.6421 31.833 64.5276 32.5631L52.7567 33.5476L40.4681 34.8396L27.1434 36.5799L13.3745 38.631L2.54216 40.4567C1.99898 40.6812 1.18493 40.7368 0.666505 40.4003C0.444426 40.2047 0.394914 39.8956 0.493939 39.6139C0.888583 39.052 1.53006 39.052 2.098 38.9409L15.6703 36.3578L35.9289 32.9882L51.7956 30.7125L65.737 29.0277L78.3955 27.8766L91.3991 27.0612L101.985 26.8084C110.547 26.7222 119.43 27.1151 127.821 28.3225Z" fill="#166E55"/>
</svg>
